<svg width="512" height="512" viewBox="0 0 512 512" fill="none" xmlns="http://www.w3.org/2000/svg">
    <g clip-path="url(#clip0_2001_514)">
        <rect width="512" height="512" rx="42.6667" fill="#C11919" />
        <path fill-rule="evenodd" clip-rule="evenodd"
            d="M130.033 225.896C130.187 226.034 130.284 226.238 130.284 226.461L130.273 239.383C130.273 239.608 130.176 239.809 130.021 239.948L130.033 225.896Z"
            fill="#FDDFCC" />
        <path fill-rule="evenodd" clip-rule="evenodd"
            d="M130.033 225.896C130.187 226.034 130.284 226.238 130.284 226.461L130.273 239.383C130.273 239.608 130.176 239.809 130.021 239.948L130.033 225.896Z"
            fill="#FDDFCC" />
        <path fill-rule="evenodd" clip-rule="evenodd"
            d="M396.982 236.864C396.562 236.864 396.222 237.204 396.222 237.623L396.211 250.546C396.211 250.965 396.551 251.307 396.969 251.307L409.893 251.318C410.311 251.318 410.654 250.978 410.654 250.557L410.664 237.636C410.664 237.215 410.324 236.875 409.904 236.875L396.982 236.864ZM411.414 251.318C410.994 251.318 410.654 251.658 410.654 252.078L410.63 279.442C410.63 279.863 410.97 280.203 411.39 280.203L424.312 280.214C424.732 280.214 425.072 279.874 425.072 279.453L425.096 252.089C425.096 251.669 424.756 251.329 424.336 251.329L411.414 251.318Z"
            fill="#FDDFCC" />
        <path fill-rule="evenodd" clip-rule="evenodd"
            d="M396.183 280.951C396.185 280.531 396.525 280.19 396.946 280.19L409.867 280.201C410.288 280.201 410.628 280.544 410.626 280.962L410.615 293.886C410.615 294.304 410.275 294.644 409.854 294.644L396.933 294.633C396.512 294.633 396.172 294.293 396.174 293.873L396.183 280.951Z"
            fill="#FDDFCC" />
        <path
            d="M130.283 226.461C130.283 226.237 130.186 226.034 130.032 225.895L130.046 208.518C130.047 208.098 130.387 207.758 130.807 207.758L381.039 207.966C381.46 207.966 381.8 208.306 381.8 208.726L381.789 223.169C381.789 222.749 382.129 222.408 382.55 222.408L395.471 222.419C395.891 222.419 396.232 222.762 396.229 223.18L396.221 236.104C396.219 236.522 395.878 236.862 395.458 236.862L382.537 236.851C382.116 236.851 381.778 236.511 381.778 236.091L381.726 295.33C381.754 294.934 382.084 294.622 382.487 294.622L395.408 294.633C395.829 294.633 396.169 294.973 396.169 295.393L396.158 308.315C396.156 308.735 395.816 309.075 395.395 309.075L382.474 309.064C382.071 309.062 381.743 308.75 381.715 308.354L381.704 322.744C381.704 323.165 381.364 323.505 380.944 323.505L369.108 323.494C368.087 323.494 367.26 324.32 367.257 325.34L367.249 337.176C367.249 337.594 366.909 337.935 366.488 337.935L354.652 337.926C353.632 337.924 352.804 338.752 352.804 339.77L352.793 351.606C352.793 352.026 352.453 352.366 352.033 352.366L159.573 352.206C159.153 352.206 158.813 351.866 158.813 351.445L158.823 339.61C158.824 338.589 157.997 337.761 156.977 337.761L145.142 337.753C144.722 337.75 144.382 337.41 144.382 336.99L144.392 325.156C144.393 324.136 143.567 323.308 142.547 323.308L130.711 323.297C130.291 323.297 129.951 322.957 129.952 322.536L129.96 312.716C129.96 312.501 129.669 312.354 129.455 312.354L116.533 312.343C116.113 312.343 115.773 312.003 115.773 311.582L115.784 298.661C115.784 298.241 116.125 297.9 116.545 297.9L129.467 297.911C129.681 297.913 129.972 297.766 129.972 297.551L130.02 239.948C130.175 239.809 130.272 239.607 130.273 239.382L130.283 226.461ZM130.032 225.895L130.02 239.948C129.885 240.069 129.707 240.143 129.512 240.143L116.59 240.132C116.17 240.132 115.83 239.792 115.83 239.371L115.841 226.45C115.841 226.029 116.182 225.689 116.602 225.689L129.524 225.7C129.719 225.7 129.897 225.774 130.032 225.895ZM115.793 284.218C115.793 283.798 115.453 283.458 115.033 283.458L102.111 283.447C101.692 283.447 101.351 283.787 101.35 284.207L101.34 297.129C101.339 297.549 101.679 297.89 102.099 297.89L115.021 297.9C115.441 297.9 115.782 297.56 115.782 297.14L115.793 284.218ZM86.9288 255.309L86.9063 282.673C86.9058 283.094 87.2458 283.434 87.6658 283.436L100.588 283.447C101.008 283.447 101.348 283.107 101.348 282.686L101.371 255.322C101.372 254.902 101.031 254.562 100.612 254.562L87.6896 254.551C87.2699 254.551 86.9292 254.891 86.9288 255.309ZM115.068 240.13C115.488 240.132 115.828 240.472 115.827 240.892L115.816 253.814C115.816 254.234 115.475 254.572 115.056 254.572L102.134 254.562C101.714 254.562 101.374 254.221 101.374 253.801L101.385 240.88C101.385 240.459 101.726 240.119 102.146 240.121L115.068 240.13Z"
            fill="#FDDFCC" />
        <path
            d="M135.314 165.513C134.295 165.442 133.41 166.211 133.341 167.232L132.53 179.143C132.461 180.155 133.223 181.035 134.235 181.111L146.693 182.045L380.732 198.564C381.748 198.635 382.632 197.868 382.704 196.85L383.549 184.886C383.62 183.867 382.853 182.985 381.835 182.914L135.314 165.513Z"
            fill="#FDDFCC" />
        <path
            d="M251.469 173.705L265.666 174.708L266.537 162.352C266.611 161.336 265.844 160.452 264.825 160.38L254.313 159.639C253.296 159.567 252.412 160.332 252.341 161.351L251.469 173.705Z"
            fill="#FDDFCC" />
        <rect x="-67.1929" y="-156.249" width="238.722" height="238.722"
            transform="rotate(7.74505 -67.1929 -156.249)" stroke="white" stroke-opacity="0.03"
            stroke-width="10.6667" />
        <rect x="-99.3647" y="80.2954" width="238.722" height="238.722"
            transform="rotate(7.74505 -99.3647 80.2954)" stroke="white" stroke-opacity="0.03"
            stroke-width="10.6667" />
        <rect x="-131.534" y="316.84" width="238.722" height="238.722"
            transform="rotate(7.74505 -131.534 316.84)" stroke="white" stroke-opacity="0.03"
            stroke-width="10.6667" />
        <rect x="169.352" y="-124.077" width="238.722" height="238.722"
            transform="rotate(7.74505 169.352 -124.077)" stroke="white" stroke-opacity="0.03"
            stroke-width="10.6667" />
        <rect x="137.18" y="112.466" width="238.722" height="238.722"
            transform="rotate(7.74505 137.18 112.466)" stroke="white" stroke-opacity="0.03"
            stroke-width="10.6667" />
        <rect x="105.013" y="349.011" width="238.722" height="238.722"
            transform="rotate(7.74505 105.013 349.011)" stroke="white" stroke-opacity="0.03"
            stroke-width="10.6667" />
        <rect x="405.896" y="-91.9058" width="238.722" height="238.722"
            transform="rotate(7.74505 405.896 -91.9058)" stroke="white" stroke-opacity="0.03"
            stroke-width="10.6667" />
        <rect x="373.724" y="144.639" width="238.722" height="238.722"
            transform="rotate(7.74505 373.724 144.639)" stroke="white" stroke-opacity="0.03"
            stroke-width="10.6667" />
        <rect x="341.552" y="381.183" width="238.722" height="238.722"
            transform="rotate(7.74505 341.552 381.183)" stroke="white" stroke-opacity="0.03"
            stroke-width="10.6667" />
    </g>
    <defs>
        <clipPath id="clip0_2001_514">
            <rect width="512" height="512" rx="42.6667" fill="white" />
        </clipPath>
    </defs>
</svg>