<svg width="45" height="67" viewBox="0 0 45 67" fill="none" xmlns="http://www.w3.org/2000/svg">
  <g clip-path="url(#clip0_0_1)" filter="url(#filter0_g_0_1)">
    <path
      d="M42.0627 44.6819H2.99335C1.93094 44.6819 1.07775 43.8057 1.10616 42.7437L1.4267 30.7615C1.4394 30.2867 1.62883 29.8358 1.96119 29.4964C3.64844 27.773 8.93394 22.3945 9.45618 22.1113C9.87006 21.8868 9.11413 20.5718 8.24093 19.3162C7.59448 18.3866 7.81371 17.0851 8.77577 16.4881L26.412 5.54312C27.2158 5.04436 27.5261 4.02786 27.1384 3.16512L26.3195 1.34277C26.2161 1.113 26.5109 0.913154 26.6861 1.09415L28.7066 3.18145C29.4807 3.98094 29.3986 5.27299 28.5301 5.96836L23.0724 10.337C22.1237 11.0963 22.129 12.5409 23.0832 13.2933L42.9313 28.9441C43.3728 29.292 43.6359 29.8187 43.6496 30.3807L43.9501 42.7482C43.9759 43.8086 43.1234 44.6819 42.0627 44.6819Z"
      fill="#C11919" />
    <path fill-rule="evenodd" clip-rule="evenodd"
      d="M9.45239 31.5786C9.46842 31.593 9.4785 31.6141 9.47847 31.6373L9.47737 32.9784C9.47735 33.0018 9.46723 33.0227 9.45117 33.0371L9.45239 31.5786Z"
      fill="#FBE5D7" />
    <path fill-rule="evenodd" clip-rule="evenodd"
      d="M9.45239 31.5786C9.46842 31.593 9.4785 31.6141 9.47847 31.6373L9.47737 32.9784C9.47735 33.0018 9.46723 33.0227 9.45117 33.0371L9.45239 31.5786Z"
      fill="#FBE5D7" />
    <path fill-rule="evenodd" clip-rule="evenodd"
      d="M37.1582 32.7168C37.1146 32.7168 37.0793 32.7521 37.0793 32.7955L37.0781 34.1368C37.0781 34.1802 37.1134 34.2158 37.1568 34.2158L38.4981 34.2169C38.5415 34.2169 38.5771 34.1816 38.5771 34.1379L38.5782 32.7969C38.5782 32.7532 38.5429 32.7179 38.4993 32.7179L37.1582 32.7168ZM38.656 34.2169C38.6124 34.2169 38.5771 34.2522 38.5771 34.2958L38.5746 37.1358C38.5746 37.1795 38.6099 37.2148 38.6535 37.2148L39.9946 37.2159C40.0383 37.2159 40.0736 37.1806 40.0736 37.137L40.076 34.2969C40.076 34.2533 40.0407 34.218 39.9971 34.218L38.656 34.2169Z"
      fill="#FBE5D7" />
    <path fill-rule="evenodd" clip-rule="evenodd"
      d="M37.0751 37.2928C37.0753 37.2492 37.1107 37.2139 37.1543 37.2139L38.4954 37.215C38.539 37.215 38.5743 37.2505 38.5741 37.2939L38.573 38.6352C38.573 38.6786 38.5376 38.7139 38.494 38.7139L37.1529 38.7128C37.1093 38.7128 37.074 38.6775 37.0742 38.6339L37.0751 37.2928Z"
      fill="#FBE5D7" />
    <path
      d="M9.47851 31.6374C9.47854 31.6142 9.46846 31.5931 9.45243 31.5787L9.45391 29.7752C9.45395 29.7316 9.48931 29.6963 9.53287 29.6963L35.5037 29.7179C35.5473 29.7179 35.5826 29.7532 35.5826 29.7968L35.5815 31.2958C35.5815 31.2521 35.6168 31.2168 35.6604 31.2168L37.0015 31.218C37.0451 31.218 37.0804 31.2535 37.0802 31.2969L37.0793 32.6382C37.0791 32.6816 37.0438 32.7169 37.0001 32.7169L35.6591 32.7158C35.6154 32.7158 35.5803 32.6805 35.5803 32.6369L35.5749 38.7852C35.5779 38.744 35.6121 38.7116 35.6539 38.7116L36.995 38.7127C37.0386 38.7127 37.0739 38.748 37.0739 38.7917L37.0728 40.1328C37.0726 40.1764 37.0372 40.2117 36.9936 40.2117L35.6525 40.2106C35.6107 40.2103 35.5767 40.178 35.5738 40.1368L35.5727 41.6304C35.5727 41.674 35.5374 41.7093 35.4938 41.7093L34.2654 41.7082C34.1594 41.7082 34.0735 41.7939 34.0733 41.8998L34.0724 43.1282C34.0724 43.1716 34.0371 43.2069 33.9935 43.2069L32.7651 43.206C32.6591 43.2058 32.5732 43.2917 32.5732 43.3974L32.5721 44.6258C32.5721 44.6694 32.5368 44.7047 32.4932 44.7047L12.5184 44.6881C12.4748 44.6881 12.4395 44.6528 12.4395 44.6092L12.4406 43.3808C12.4406 43.2748 12.3549 43.1889 12.249 43.1889L11.0207 43.188C10.9771 43.1878 10.9418 43.1525 10.9418 43.1089L10.9428 41.8807C10.9429 41.7747 10.8572 41.6888 10.7513 41.6888L9.52295 41.6877C9.47937 41.6877 9.44408 41.6524 9.4441 41.6088L9.44496 40.5895C9.44498 40.5673 9.41475 40.552 9.39253 40.552L8.05141 40.5508C8.00783 40.5508 7.97254 40.5155 7.97259 40.4719L7.97369 39.1308C7.97373 39.0872 8.00909 39.0519 8.05265 39.0519L9.39377 39.053C9.41599 39.0532 9.44624 39.0379 9.44626 39.0157L9.45121 33.0372C9.46727 33.0228 9.47739 33.0019 9.47741 32.9785L9.47851 31.6374ZM9.45243 31.5787L9.45121 33.0372C9.43722 33.0498 9.41871 33.0574 9.39845 33.0574L8.05731 33.0563C8.01374 33.0563 7.97846 33.021 7.97848 32.9774L7.9796 31.6363C7.97963 31.5926 8.01498 31.5573 8.05856 31.5573L9.39969 31.5585C9.41997 31.5585 9.43846 31.5661 9.45243 31.5787ZM7.97461 37.6319C7.97463 37.5882 7.93935 37.5529 7.89576 37.5529L6.55464 37.5518C6.51108 37.5518 6.47572 37.5871 6.47568 37.6307L6.47457 38.9718C6.47453 39.0155 6.50982 39.0508 6.5534 39.0508L7.89452 39.0519C7.93811 39.0519 7.97346 39.0166 7.97349 38.9729L7.97461 37.6319ZM4.9789 34.6315L4.97656 37.4715C4.97652 37.5152 5.0118 37.5505 5.05539 37.5507L6.39651 37.5518C6.4401 37.5518 6.47545 37.5165 6.47547 37.4729L6.47784 34.6328C6.47788 34.5892 6.44257 34.5539 6.39901 34.5539L5.05786 34.5528C5.0143 34.5528 4.97895 34.5881 4.9789 34.6315ZM7.89934 33.0561C7.94292 33.0563 7.97821 33.0916 7.97816 33.1352L7.97706 34.4763C7.97702 34.5199 7.94166 34.555 7.8981 34.555L6.55698 34.5539C6.51339 34.5539 6.47811 34.5186 6.47813 34.475L6.47925 33.1339C6.47927 33.0903 6.51463 33.0549 6.55821 33.0552L7.89934 33.0561Z"
      fill="#FBE5D7" />
    <path
      d="M10.0003 25.3115C9.8945 25.3041 9.80272 25.3839 9.79552 25.4899L9.71139 26.7261C9.70424 26.8312 9.78327 26.9225 9.88834 26.9303L11.1813 27.0273L35.4714 28.7417C35.5769 28.7491 35.6686 28.6695 35.6761 28.5638L35.7638 27.3221C35.7712 27.2164 35.6916 27.1249 35.5859 27.1175L10.0003 25.3115Z"
      fill="#FBE5D7" />
    <path
      d="M22.0557 26.162L23.5291 26.2661L23.6195 24.9837C23.6272 24.8782 23.5476 24.7865 23.4419 24.7791L22.3509 24.7021C22.2453 24.6947 22.1536 24.7741 22.1462 24.8798L22.0557 26.162Z"
      fill="#FBE5D7" />
    <path
      d="M40.5147 49.7886C40.4276 49.7886 40.357 49.7183 40.357 49.6312V48.4604C40.357 48.3734 40.4276 48.3027 40.5147 48.3027H43.1712C43.2582 48.3027 43.3288 48.3734 43.3288 48.4604V49.6312C43.3288 49.7183 43.2582 49.7886 43.1712 49.7886H40.5147ZM40.357 55.5749C40.357 55.6619 40.2864 55.7325 40.1994 55.7325H39.0287C38.9417 55.7325 38.8711 55.6619 38.8711 55.5749V49.9463C38.8711 49.8593 38.9417 49.7886 39.0287 49.7886H40.1994C40.2864 49.7886 40.357 49.8593 40.357 49.9463V51.1171C40.357 51.2042 40.4276 51.2746 40.5147 51.2746H43.1712C43.2582 51.2746 43.3288 51.2042 43.3288 51.1171V49.9463C43.3288 49.8593 43.3994 49.7886 43.4865 49.7886H44.6571C44.7441 49.7886 44.8147 49.8593 44.8147 49.9463V55.5749C44.8147 55.6619 44.7441 55.7325 44.6571 55.7325H43.4865C43.3994 55.7325 43.3288 55.6619 43.3288 55.5749V52.9181C43.3288 52.8311 43.2582 52.7607 43.1712 52.7607H40.5147C40.4276 52.7607 40.357 52.8311 40.357 52.9181V55.5749Z"
      fill="#FDAC77" />
    <path
      d="M37.228 54.2466C37.3151 54.2466 37.3855 54.317 37.3855 54.404V55.5749C37.3855 55.6619 37.3151 55.7325 37.2278 55.7325H33.0854C32.9984 55.7325 32.9277 55.6619 32.9277 55.5749V48.4604C32.9277 48.3734 32.9984 48.3027 33.0854 48.3027H34.256C34.343 48.3027 34.4136 48.3734 34.4136 48.4604V54.089C34.4136 54.176 34.4843 54.2466 34.5713 54.2466H37.228Z"
      fill="#FDAC77" />
    <path
      d="M31.442 55.5749C31.442 55.6619 31.3713 55.7325 31.2843 55.7325H30.1137C30.0267 55.7325 29.9561 55.6619 29.9561 55.5749V48.4604C29.9561 48.3734 30.0267 48.3027 30.1137 48.3027H31.2843C31.3713 48.3027 31.442 48.3734 31.442 48.4604V55.5749Z"
      fill="#FDAC77" />
    <path
      d="M22.5269 55.5749C22.5269 55.6619 22.4564 55.7325 22.3693 55.7325H21.1986C21.1116 55.7325 21.041 55.6619 21.041 55.5749V48.4604C21.041 48.3734 21.1116 48.3027 21.1986 48.3027H22.3693C22.4564 48.3027 22.5269 48.3734 22.5269 48.4604V49.6312C22.5269 49.7183 22.5975 49.7886 22.6845 49.7886H23.8554C23.9424 49.7886 24.0128 49.8593 24.0128 49.9463V51.1171C24.0128 51.2042 23.9424 51.2746 23.8554 51.2746H22.6845C22.5975 51.2746 22.5269 51.3452 22.5269 51.4322V55.5749ZM28.4705 55.5749C28.4705 55.6619 28.4001 55.7325 28.3131 55.7325H27.1423C27.0552 55.7325 26.9846 55.6619 26.9846 55.5749V51.4322C26.9846 51.3452 26.9142 51.2746 26.8272 51.2746H25.6564C25.5693 51.2746 25.4987 51.2042 25.4987 51.1171V49.9463C25.4987 49.8593 25.5693 49.7886 25.6564 49.7886H26.8272C26.9142 49.7886 26.9846 49.7183 26.9846 49.6312V48.4604C26.9846 48.3734 27.0552 48.3027 27.1423 48.3027H28.3131C28.4001 48.3027 28.4705 48.3734 28.4705 48.4604V55.5749ZM24.1704 52.7607C24.0834 52.7607 24.0128 52.6901 24.0128 52.603V51.4322C24.0128 51.3452 24.0834 51.2746 24.1704 51.2746H25.3413C25.4283 51.2746 25.4987 51.3452 25.4987 51.4322V52.603C25.4987 52.6901 25.4283 52.7607 25.3413 52.7607H24.1704Z"
      fill="#FDAC77" />
    <path
      d="M15.2549 49.7886C15.1678 49.7886 15.0973 49.7183 15.0973 49.6312V48.4604C15.0973 48.3734 15.1678 48.3027 15.2549 48.3027H17.9115C17.9985 48.3027 18.0691 48.3734 18.0691 48.4604V49.6312C18.0691 49.7183 17.9985 49.7886 17.9115 49.7886H15.2549ZM15.0973 55.5749C15.0973 55.6619 15.0267 55.7325 14.9397 55.7325H13.7689C13.6819 55.7325 13.6113 55.6619 13.6113 55.5749V49.9463C13.6113 49.8593 13.6819 49.7886 13.7689 49.7886H14.9397C15.0267 49.7886 15.0973 49.8593 15.0973 49.9463V51.1171C15.0973 51.2042 15.1678 51.2746 15.2549 51.2746H17.9115C17.9985 51.2746 18.0691 51.2042 18.0691 51.1171V49.9463C18.0691 49.8593 18.1397 49.7886 18.2267 49.7886H19.3974C19.4845 49.7886 19.555 49.8593 19.555 49.9463V55.5749C19.555 55.6619 19.4845 55.7325 19.3974 55.7325H18.2267C18.1397 55.7325 18.0691 55.6619 18.0691 55.5749V52.9181C18.0691 52.8311 17.9985 52.7607 17.9115 52.7607H15.2549C15.1678 52.7607 15.0973 52.8311 15.0973 52.9181V55.5749Z"
      fill="#FDAC77" />
    <path
      d="M7.82516 49.7886C7.73812 49.7886 7.66755 49.7183 7.66755 49.6312V48.4604C7.66755 48.3734 7.73812 48.3027 7.82516 48.3027H11.9677C12.0548 48.3027 12.1253 48.3734 12.1253 48.4604V49.6312C12.1253 49.7183 12.0548 49.7886 11.9677 49.7886H7.82516ZM7.82516 55.7325C7.73812 55.7325 7.66755 55.6619 7.66755 55.5749V54.404C7.66755 54.317 7.597 54.2466 7.50997 54.2466H6.33925C6.25219 54.2466 6.18164 54.176 6.18164 54.089V49.9463C6.18164 49.8593 6.25219 49.7886 6.33925 49.7886H7.50997C7.597 49.7886 7.66755 49.8593 7.66755 49.9463V54.089C7.66755 54.176 7.73812 54.2466 7.82516 54.2466H10.4818C10.5688 54.2466 10.6394 54.176 10.6394 54.089V52.9181C10.6394 52.8311 10.5688 52.7607 10.4818 52.7607H9.3111C9.22404 52.7607 9.15349 52.6901 9.15349 52.603V51.4322C9.15349 51.3452 9.22404 51.2746 9.3111 51.2746H11.9677C12.0548 51.2746 12.1253 51.3452 12.1253 51.4322V55.5749C12.1253 55.6619 12.0548 55.7325 11.9677 55.7325H7.82516Z"
      fill="#FDAC77" />
    <path
      d="M4.53745 54.2466C4.62451 54.2466 4.69506 54.317 4.69506 54.404V55.5749C4.69506 55.6619 4.62451 55.7325 4.53745 55.7325H0.39491C0.307867 55.7325 0.237305 55.6619 0.237305 55.5749V48.4604C0.237305 48.3734 0.307867 48.3027 0.39491 48.3027H1.56562C1.65266 48.3027 1.72323 48.3734 1.72323 48.4604V54.089C1.72323 54.176 1.79379 54.2466 1.88083 54.2466H4.53745Z"
      fill="#FDAC77" />
  </g>
  <path
    d="M15.75 65.5V67H11.25V59.5H12.75V65.5H15.75ZM18.75 67H17.25V59.5H18.75V67ZM21.75 64H20.25V59.5H21.75V64ZM23.25 64V59.5H24.75V64H23.25ZM23.25 67H21.75V64H23.25V67ZM32.25 65.5V67H26.25V59.5H32.25V61H27.75V62.5H30.75V64H27.75V65.5H32.25Z"
    fill="#FBE5D7" />
  <defs>
    <filter id="filter0_g_0_1" x="-0.125" y="-0.125" width="45.2295" height="56.25"
      filterUnits="userSpaceOnUse" color-interpolation-filters="sRGB">
      <feFlood flood-opacity="0" result="BackgroundImageFix" />
      <feBlend mode="normal" in="SourceGraphic" in2="BackgroundImageFix" result="shape" />
      <feTurbulence type="fractalNoise" baseFrequency="1.25 1.25" numOctaves="3" seed="3411" />
      <feDisplacementMap in="shape" scale="0.25" xChannelSelector="R" yChannelSelector="G"
        result="displacedImage" width="100%" height="100%" />
      <feMerge result="effect1_texture_0_1">
        <feMergeNode in="displacedImage" />
      </feMerge>
    </filter>
    <clipPath id="clip0_0_1">
      <rect width="44.9799" height="56" fill="white" />
    </clipPath>
  </defs>
</svg>