<svg width="473" height="602" viewBox="0 0 473 602" fill="none" xmlns="http://www.w3.org/2000/svg">
<g opacity="0.6" filter="url(#filter0_f_15_3)">
<path d="M617.068 -37.08L449.511 -79.0639C449.186 -79.1453 448.852 -79.1855 448.517 -79.1838L409.012 -78.9734C407.306 -78.9643 405.782 -80.0379 405.217 -81.6472L379.265 -155.497C378.32 -158.185 374.947 -159.052 372.824 -157.152L304.677 -96.1813C304.411 -95.9432 304.178 -95.6704 303.984 -95.3703L203.186 60.7151C201.475 63.3646 203.36 66.8597 206.514 66.885L353.907 68.0654C354.645 68.0713 355.366 68.2808 355.991 68.6709L426.398 112.566C427.599 113.314 429.106 113.373 430.362 112.719L567.164 41.5037C567.724 41.2124 568.207 40.7928 568.573 40.2792L619.351 -30.8764C620.989 -33.1713 619.802 -36.3948 617.068 -37.08Z" fill="url(#paint0_linear_15_3)"/>
</g>
<rect x="24.0002" y="-79.1035" width="85.0973" height="85.0973" transform="rotate(7.74505 24.0002 -79.1035)" stroke="white" stroke-opacity="0.03"/>
<rect x="12.5322" y="5.21753" width="85.0973" height="85.0973" transform="rotate(7.74505 12.5322 5.21753)" stroke="white" stroke-opacity="0.03"/>
<rect x="1.06372" y="89.5386" width="85.0973" height="85.0973" transform="rotate(7.74505 1.06372 89.5386)" stroke="white" stroke-opacity="0.03"/>
<rect x="-10.4043" y="173.86" width="85.0973" height="85.0973" transform="rotate(7.74505 -10.4043 173.86)" stroke="white" stroke-opacity="0.03"/>
<rect x="-21.8728" y="258.181" width="85.0973" height="85.0973" transform="rotate(7.74505 -21.8728 258.181)" stroke="white" stroke-opacity="0.03"/>
<rect x="-33.3406" y="342.502" width="85.0973" height="85.0973" transform="rotate(7.74505 -33.3406 342.502)" stroke="white" stroke-opacity="0.03"/>
<rect x="-44.8091" y="426.823" width="85.0973" height="85.0973" transform="rotate(7.74505 -44.8091 426.823)" stroke="white" stroke-opacity="0.03"/>
<rect x="-56.2769" y="511.144" width="85.0973" height="85.0973" transform="rotate(7.74505 -56.2769 511.144)" stroke="white" stroke-opacity="0.03"/>
<rect x="-67.7454" y="595.465" width="85.0973" height="85.0973" transform="rotate(7.74505 -67.7454 595.465)" stroke="white" stroke-opacity="0.03"/>
<rect x="108.321" y="-67.6354" width="85.0973" height="85.0973" transform="rotate(7.74505 108.321 -67.6354)" stroke="white" stroke-opacity="0.03"/>
<rect x="96.8528" y="16.6857" width="85.0973" height="85.0973" transform="rotate(7.74505 96.8528 16.6857)" stroke="white" stroke-opacity="0.03"/>
<rect x="85.385" y="101.007" width="85.0973" height="85.0973" transform="rotate(7.74505 85.385 101.007)" stroke="white" stroke-opacity="0.03"/>
<rect x="73.9165" y="185.328" width="85.0973" height="85.0973" transform="rotate(7.74505 73.9165 185.328)" stroke="white" stroke-opacity="0.03"/>
<rect x="62.4485" y="269.649" width="85.0973" height="85.0973" transform="rotate(7.74505 62.4485 269.649)" stroke="white" stroke-opacity="0.03"/>
<rect x="50.9802" y="353.97" width="85.0973" height="85.0973" transform="rotate(7.74505 50.9802 353.97)" stroke="white" stroke-opacity="0.03"/>
<rect x="39.5122" y="438.291" width="85.0973" height="85.0973" transform="rotate(7.74505 39.5122 438.291)" stroke="white" stroke-opacity="0.03"/>
<rect x="28.0437" y="522.612" width="85.0973" height="85.0973" transform="rotate(7.74505 28.0437 522.612)" stroke="white" stroke-opacity="0.03"/>
<rect x="192.642" y="-56.1671" width="85.0973" height="85.0973" transform="rotate(7.74505 192.642 -56.1671)" stroke="white" stroke-opacity="0.03"/>
<rect x="181.174" y="28.1538" width="85.0973" height="85.0973" transform="rotate(7.74505 181.174 28.1538)" stroke="white" stroke-opacity="0.03"/>
<rect x="169.706" y="112.475" width="85.0973" height="85.0973" transform="rotate(7.74505 169.706 112.475)" stroke="white" stroke-opacity="0.03"/>
<rect x="158.237" y="196.796" width="85.0973" height="85.0973" transform="rotate(7.74505 158.237 196.796)" stroke="white" stroke-opacity="0.03"/>
<rect x="146.77" y="281.117" width="85.0973" height="85.0973" transform="rotate(7.74505 146.77 281.117)" stroke="white" stroke-opacity="0.03"/>
<rect x="135.301" y="365.438" width="85.0973" height="85.0973" transform="rotate(7.74505 135.301 365.438)" stroke="white" stroke-opacity="0.03"/>
<rect x="123.833" y="449.759" width="85.0973" height="85.0973" transform="rotate(7.74505 123.833 449.759)" stroke="white" stroke-opacity="0.03"/>
<rect x="112.365" y="534.08" width="85.0973" height="85.0973" transform="rotate(7.74505 112.365 534.08)" stroke="white" stroke-opacity="0.03"/>
<rect x="276.963" y="-44.699" width="85.0973" height="85.0973" transform="rotate(7.74505 276.963 -44.699)" stroke="white" stroke-opacity="0.03"/>
<rect x="265.495" y="39.6221" width="85.0973" height="85.0973" transform="rotate(7.74505 265.495 39.6221)" stroke="white" stroke-opacity="0.03"/>
<rect x="254.027" y="123.943" width="85.0973" height="85.0973" transform="rotate(7.74505 254.027 123.943)" stroke="white" stroke-opacity="0.03"/>
<rect x="242.559" y="208.264" width="85.0973" height="85.0973" transform="rotate(7.74505 242.559 208.264)" stroke="white" stroke-opacity="0.03"/>
<rect x="231.09" y="292.585" width="85.0973" height="85.0973" transform="rotate(7.74505 231.09 292.585)" stroke="white" stroke-opacity="0.03"/>
<rect x="219.623" y="376.906" width="85.0973" height="85.0973" transform="rotate(7.74505 219.623 376.906)" stroke="white" stroke-opacity="0.03"/>
<rect x="208.154" y="461.227" width="85.0973" height="85.0973" transform="rotate(7.74505 208.154 461.227)" stroke="white" stroke-opacity="0.03"/>
<rect x="196.686" y="545.548" width="85.0973" height="85.0973" transform="rotate(7.74505 196.686 545.548)" stroke="white" stroke-opacity="0.03"/>
<rect x="361.284" y="-33.2308" width="85.0973" height="85.0973" transform="rotate(7.74505 361.284 -33.2308)" stroke="white" stroke-opacity="0.03"/>
<rect x="349.816" y="51.0902" width="85.0973" height="85.0973" transform="rotate(7.74505 349.816 51.0902)" stroke="white" stroke-opacity="0.03"/>
<rect x="338.348" y="135.411" width="85.0973" height="85.0973" transform="rotate(7.74505 338.348 135.411)" stroke="white" stroke-opacity="0.03"/>
<rect x="326.879" y="219.732" width="85.0973" height="85.0973" transform="rotate(7.74505 326.879 219.732)" stroke="white" stroke-opacity="0.03"/>
<rect x="315.411" y="304.053" width="85.0973" height="85.0973" transform="rotate(7.74505 315.411 304.053)" stroke="white" stroke-opacity="0.03"/>
<rect x="303.943" y="388.374" width="85.0973" height="85.0973" transform="rotate(7.74505 303.943 388.374)" stroke="white" stroke-opacity="0.03"/>
<rect x="292.475" y="472.695" width="85.0973" height="85.0973" transform="rotate(7.74505 292.475 472.695)" stroke="white" stroke-opacity="0.03"/>
<rect x="281.007" y="557.016" width="85.0973" height="85.0973" transform="rotate(7.74505 281.007 557.016)" stroke="white" stroke-opacity="0.03"/>
<rect x="445.605" y="-21.7627" width="85.0973" height="85.0973" transform="rotate(7.74505 445.605 -21.7627)" stroke="white" stroke-opacity="0.03"/>
<rect x="434.138" y="62.5583" width="85.0973" height="85.0973" transform="rotate(7.74505 434.138 62.5583)" stroke="white" stroke-opacity="0.03"/>
<rect x="422.669" y="146.879" width="85.0973" height="85.0973" transform="rotate(7.74505 422.669 146.879)" stroke="white" stroke-opacity="0.03"/>
<rect x="411.201" y="231.2" width="85.0973" height="85.0973" transform="rotate(7.74505 411.201 231.2)" stroke="white" stroke-opacity="0.03"/>
<rect x="399.733" y="315.521" width="85.0973" height="85.0973" transform="rotate(7.74505 399.733 315.521)" stroke="white" stroke-opacity="0.03"/>
<rect x="388.265" y="399.842" width="85.0973" height="85.0973" transform="rotate(7.74505 388.265 399.842)" stroke="white" stroke-opacity="0.03"/>
<rect x="376.796" y="484.163" width="85.0973" height="85.0973" transform="rotate(7.74505 376.796 484.163)" stroke="white" stroke-opacity="0.03"/>
<rect x="365.329" y="568.484" width="85.0973" height="85.0973" transform="rotate(7.74505 365.329 568.484)" stroke="white" stroke-opacity="0.03"/>
<rect x="484.054" y="326.99" width="85.0973" height="85.0973" transform="rotate(7.74505 484.054 326.99)" stroke="white" stroke-opacity="0.03"/>
<rect x="472.585" y="411.31" width="85.0973" height="85.0973" transform="rotate(7.74505 472.585 411.31)" stroke="white" stroke-opacity="0.03"/>
<rect x="461.117" y="495.631" width="85.0973" height="85.0973" transform="rotate(7.74505 461.117 495.631)" stroke="white" stroke-opacity="0.03"/>
<rect x="449.649" y="579.953" width="85.0973" height="85.0973" transform="rotate(7.74505 449.649 579.953)" stroke="white" stroke-opacity="0.03"/>
<defs>
<filter id="filter0_f_15_3" x="102.54" y="-258.172" width="617.559" height="471.344" filterUnits="userSpaceOnUse" color-interpolation-filters="sRGB">
<feFlood flood-opacity="0" result="BackgroundImageFix"/>
<feBlend mode="normal" in="SourceGraphic" in2="BackgroundImageFix" result="shape"/>
<feGaussianBlur stdDeviation="50" result="effect1_foregroundBlur_15_3"/>
</filter>
<linearGradient id="paint0_linear_15_3" x1="263.878" y1="-59.6208" x2="601.101" y2="112.765" gradientUnits="userSpaceOnUse">
<stop offset="0.307692" stop-color="#FCA875"/>
<stop offset="0.711538" stop-color="#C11919"/>
<stop offset="1" stop-color="#870C07"/>
</linearGradient>
</defs>
</svg>
