<svg width="45" height="67" viewBox="0 0 45 67" fill="none" xmlns="http://www.w3.org/2000/svg">
<g clip-path="url(#clip0_15_3)" filter="url(#filter0_g_15_3)">
<path d="M42.063 44.6817H2.9936C1.93118 44.6817 1.07799 43.8055 1.1064 42.7436L1.42694 30.7614C1.43965 30.2866 1.62908 29.8357 1.96144 29.4963C3.64868 27.7729 8.93418 22.3944 9.45642 22.1112C9.87031 21.8867 9.11437 20.5717 8.24118 19.316C7.59473 18.3865 7.81396 17.085 8.77601 16.488L26.4122 5.543C27.216 5.04424 27.5264 4.02773 27.1386 3.165L26.3198 1.34265C26.2163 1.11288 26.5112 0.913032 26.6864 1.09403L28.7069 3.18133C29.481 3.98082 29.3989 5.27287 28.5303 5.96824L23.0727 10.3368C22.124 11.0962 22.1293 12.5408 23.0835 13.2931L42.9315 28.9439C43.373 29.2919 43.6361 29.8186 43.6499 30.3806L43.9503 42.7481C43.9762 43.8085 43.1236 44.6817 42.063 44.6817Z" fill="#C11919"/>
<path fill-rule="evenodd" clip-rule="evenodd" d="M9.45214 31.5784C9.46818 31.5928 9.47825 31.614 9.47823 31.6371L9.47713 32.9782C9.47711 33.0016 9.46699 33.0225 9.45093 33.0369L9.45214 31.5784Z" fill="#FBE5D7"/>
<path fill-rule="evenodd" clip-rule="evenodd" d="M9.45214 31.5784C9.46818 31.5928 9.47825 31.614 9.47823 31.6371L9.47713 32.9782C9.47711 33.0016 9.46699 33.0225 9.45093 33.0369L9.45214 31.5784Z" fill="#FBE5D7"/>
<path fill-rule="evenodd" clip-rule="evenodd" d="M37.1579 32.7169C37.1143 32.7169 37.079 32.7522 37.079 32.7956L37.0779 34.1369C37.0779 34.1803 37.1132 34.2158 37.1566 34.2158L38.4979 34.2169C38.5413 34.2169 38.5768 34.1816 38.5768 34.138L38.578 32.7969C38.578 32.7533 38.5427 32.718 38.499 32.718L37.1579 32.7169ZM38.6558 34.2169C38.6121 34.2169 38.5768 34.2522 38.5768 34.2959L38.5744 37.1359C38.5744 37.1795 38.6097 37.2148 38.6533 37.2148L39.9944 37.216C40.038 37.216 40.0733 37.1807 40.0733 37.137L40.0758 34.297C40.0758 34.2534 40.0405 34.2181 39.9969 34.2181L38.6558 34.2169Z" fill="#FBE5D7"/>
<path fill-rule="evenodd" clip-rule="evenodd" d="M37.0749 37.2924C37.0751 37.2488 37.1104 37.2135 37.154 37.2135L38.4951 37.2146C38.5387 37.2146 38.5741 37.2502 38.5738 37.2936L38.5727 38.6349C38.5727 38.6783 38.5374 38.7136 38.4938 38.7136L37.1527 38.7125C37.1091 38.7125 37.0738 38.6772 37.074 38.6335L37.0749 37.2924Z" fill="#FBE5D7"/>
<path d="M9.47827 31.6371C9.47829 31.6139 9.46822 31.5928 9.45218 31.5784L9.45367 29.7749C9.45371 29.7313 9.48907 29.696 9.53263 29.696L35.5034 29.7176C35.547 29.7176 35.5824 29.7529 35.5824 29.7965L35.5812 31.2955C35.5812 31.2518 35.6165 31.2165 35.6602 31.2165L37.0012 31.2177C37.0449 31.2177 37.0802 31.2532 37.08 31.2966L37.0791 32.6379C37.0788 32.6813 37.0435 32.7166 36.9999 32.7166L35.6588 32.7155C35.6152 32.7155 35.5801 32.6802 35.5801 32.6365L35.5747 38.7849C35.5776 38.7437 35.6118 38.7113 35.6536 38.7113L36.9947 38.7124C37.0384 38.7124 37.0737 38.7477 37.0737 38.7914L37.0725 40.1325C37.0723 40.1761 37.037 40.2114 36.9934 40.2114L35.6523 40.2103C35.6105 40.21 35.5765 40.1777 35.5736 40.1365L35.5725 41.6301C35.5725 41.6737 35.5371 41.709 35.4935 41.709L34.2651 41.7079C34.1592 41.7079 34.0733 41.7936 34.0731 41.8995L34.0721 43.1279C34.0721 43.1713 34.0368 43.2066 33.9932 43.2066L32.7648 43.2057C32.6589 43.2055 32.573 43.2914 32.573 43.3971L32.5718 44.6255C32.5718 44.6691 32.5365 44.7044 32.4929 44.7044L12.5181 44.6878C12.4745 44.6878 12.4393 44.6525 12.4393 44.6089L12.4403 43.3805C12.4404 43.2745 12.3546 43.1886 12.2487 43.1886L11.0204 43.1877C10.9768 43.1875 10.9416 43.1522 10.9416 43.1085L10.9426 41.8804C10.9427 41.7744 10.8569 41.6885 10.751 41.6885L9.52271 41.6874C9.47913 41.6874 9.44384 41.6521 9.44386 41.6085L9.44472 40.5892C9.44474 40.567 9.41451 40.5517 9.39229 40.5517L8.05117 40.5505C8.00758 40.5505 7.9723 40.5152 7.97234 40.4716L7.97344 39.1305C7.97349 39.0869 8.00884 39.0516 8.05241 39.0516L9.39353 39.0527C9.41575 39.0529 9.446 39.0376 9.44602 39.0154L9.45097 33.0369C9.46703 33.0225 9.47715 33.0016 9.47717 32.9782L9.47827 31.6371ZM9.45218 31.5784L9.45097 33.0369C9.43698 33.0495 9.41847 33.0571 9.39821 33.0571L8.05706 33.056C8.0135 33.056 7.97821 33.0207 7.97823 32.977L7.97936 31.636C7.97938 31.5923 8.01474 31.557 8.05832 31.557L9.39944 31.5582C9.41973 31.5582 9.43822 31.5658 9.45218 31.5784ZM7.97437 37.6316C7.97439 37.5879 7.9391 37.5526 7.89552 37.5526L6.55439 37.5515C6.51083 37.5515 6.47548 37.5868 6.47543 37.6304L6.47433 38.9715C6.47429 39.0151 6.50957 39.0505 6.55316 39.0505L7.89428 39.0516C7.93787 39.0516 7.97322 39.0163 7.97324 38.9726L7.97437 37.6316ZM4.97866 34.6312L4.97632 37.4712C4.97627 37.5148 5.01156 37.5502 5.05515 37.5504L6.39627 37.5515C6.43985 37.5515 6.47521 37.5162 6.47523 37.4726L6.47759 34.6325C6.47764 34.5889 6.44233 34.5536 6.39876 34.5536L5.05762 34.5525C5.01406 34.5525 4.9787 34.5878 4.97866 34.6312ZM7.89909 33.0558C7.94268 33.056 7.97796 33.0913 7.97792 33.1349L7.97682 34.476C7.97677 34.5196 7.94142 34.5547 7.89786 34.5547L6.55673 34.5536C6.51315 34.5536 6.47786 34.5183 6.47788 34.4747L6.47901 33.1336C6.47903 33.0899 6.51438 33.0546 6.55797 33.0549L7.89909 33.0558Z" fill="#FBE5D7"/>
<path d="M10.0003 25.3116C9.8945 25.3042 9.80272 25.384 9.79552 25.4899L9.71139 26.7262C9.70424 26.8312 9.78327 26.9225 9.88834 26.9304L11.1813 27.0273L35.4714 28.7417C35.5769 28.7492 35.6686 28.6696 35.6761 28.5638L35.7638 27.3222C35.7712 27.2165 35.6916 27.1249 35.5859 27.1175L10.0003 25.3116Z" fill="#FBE5D7"/>
<path d="M22.0557 26.1617L23.5291 26.2658L23.6195 24.9835C23.6272 24.878 23.5476 24.7862 23.4419 24.7788L22.3509 24.7019C22.2453 24.6945 22.1536 24.7739 22.1462 24.8796L22.0557 26.1617Z" fill="#FBE5D7"/>
<path d="M40.5149 49.7885C40.4279 49.7885 40.3573 49.7181 40.3573 49.6311V48.4603C40.3573 48.3732 40.4279 48.3026 40.5149 48.3026H43.1714C43.2585 48.3026 43.3291 48.3732 43.3291 48.4603V49.6311C43.3291 49.7181 43.2585 49.7885 43.1714 49.7885H40.5149ZM40.3573 55.5747C40.3573 55.6618 40.2866 55.7324 40.1996 55.7324H39.029C38.942 55.7324 38.8713 55.6618 38.8713 55.5747V49.9462C38.8713 49.8591 38.942 49.7885 39.029 49.7885H40.1996C40.2866 49.7885 40.3573 49.8591 40.3573 49.9462V51.117C40.3573 51.204 40.4279 51.2744 40.5149 51.2744H43.1714C43.2585 51.2744 43.3291 51.204 43.3291 51.117V49.9462C43.3291 49.8591 43.3997 49.7885 43.4867 49.7885H44.6573C44.7444 49.7885 44.815 49.8591 44.815 49.9462V55.5747C44.815 55.6618 44.7444 55.7324 44.6573 55.7324H43.4867C43.3997 55.7324 43.3291 55.6618 43.3291 55.5747V52.918C43.3291 52.831 43.2585 52.7606 43.1714 52.7606H40.5149C40.4279 52.7606 40.3573 52.831 40.3573 52.918V55.5747Z" fill="#FDAC77"/>
<path d="M37.2278 54.2465C37.3148 54.2465 37.3852 54.3169 37.3852 54.4039V55.5747C37.3852 55.6618 37.3148 55.7324 37.2276 55.7324H33.0851C32.9981 55.7324 32.9275 55.6618 32.9275 55.5747V48.4603C32.9275 48.3732 32.9981 48.3026 33.0851 48.3026H34.2557C34.3428 48.3026 34.4134 48.3732 34.4134 48.4603V54.0888C34.4134 54.1759 34.484 54.2465 34.5711 54.2465H37.2278Z" fill="#FDAC77"/>
<path d="M31.4417 55.5747C31.4417 55.6618 31.3711 55.7324 31.2841 55.7324H30.1135C30.0264 55.7324 29.9558 55.6618 29.9558 55.5747V48.4603C29.9558 48.3732 30.0264 48.3026 30.1135 48.3026H31.2841C31.3711 48.3026 31.4417 48.3732 31.4417 48.4603V55.5747Z" fill="#FDAC77"/>
<path d="M22.5262 55.5747C22.5262 55.6618 22.4556 55.7324 22.3686 55.7324H21.1979C21.1109 55.7324 21.0403 55.6618 21.0403 55.5747V48.4603C21.0403 48.3732 21.1109 48.3026 21.1979 48.3026H22.3686C22.4556 48.3026 22.5262 48.3732 22.5262 48.4603V49.6311C22.5262 49.7181 22.5968 49.7885 22.6838 49.7885H23.8546C23.9417 49.7885 24.0121 49.8591 24.0121 49.9462V51.117C24.0121 51.204 23.9417 51.2744 23.8546 51.2744H22.6838C22.5968 51.2744 22.5262 51.3451 22.5262 51.4321V55.5747ZM28.4698 55.5747C28.4698 55.6618 28.3994 55.7324 28.3124 55.7324H27.1415C27.0545 55.7324 26.9839 55.6618 26.9839 55.5747V51.4321C26.9839 51.3451 26.9135 51.2744 26.8265 51.2744H25.6556C25.5686 51.2744 25.498 51.204 25.498 51.117V49.9462C25.498 49.8591 25.5686 49.7885 25.6556 49.7885H26.8265C26.9135 49.7885 26.9839 49.7181 26.9839 49.6311V48.4603C26.9839 48.3732 27.0545 48.3026 27.1415 48.3026H28.3124C28.3994 48.3026 28.4698 48.3732 28.4698 48.4603V55.5747ZM24.1697 52.7606C24.0827 52.7606 24.0121 52.69 24.0121 52.6029V51.4321C24.0121 51.3451 24.0827 51.2744 24.1697 51.2744H25.3405C25.4276 51.2744 25.498 51.3451 25.498 51.4321V52.6029C25.498 52.69 25.4276 52.7606 25.3405 52.7606H24.1697Z" fill="#FDAC77"/>
<path d="M15.2541 49.7885C15.1671 49.7885 15.0965 49.7181 15.0965 49.6311V48.4603C15.0965 48.3732 15.1671 48.3026 15.2541 48.3026H17.9108C17.9978 48.3026 18.0684 48.3732 18.0684 48.4603V49.6311C18.0684 49.7181 17.9978 49.7885 17.9108 49.7885H15.2541ZM15.0965 55.5747C15.0965 55.6618 15.026 55.7324 14.9389 55.7324H13.7682C13.6812 55.7324 13.6106 55.6618 13.6106 55.5747V49.9462C13.6106 49.8591 13.6812 49.7885 13.7682 49.7885H14.9389C15.026 49.7885 15.0965 49.8591 15.0965 49.9462V51.117C15.0965 51.204 15.1671 51.2744 15.2541 51.2744H17.9108C17.9978 51.2744 18.0684 51.204 18.0684 51.117V49.9462C18.0684 49.8591 18.1389 49.7885 18.226 49.7885H19.3967C19.4837 49.7885 19.5543 49.8591 19.5543 49.9462V55.5747C19.5543 55.6618 19.4837 55.7324 19.3967 55.7324H18.226C18.1389 55.7324 18.0684 55.6618 18.0684 55.5747V52.918C18.0684 52.831 17.9978 52.7606 17.9108 52.7606H15.2541C15.1671 52.7606 15.0965 52.831 15.0965 52.918V55.5747Z" fill="#FDAC77"/>
<path d="M7.82443 49.7885C7.73739 49.7885 7.66682 49.7181 7.66682 49.6311V48.4603C7.66682 48.3732 7.73739 48.3026 7.82443 48.3026H11.967C12.054 48.3026 12.1246 48.3732 12.1246 48.4603V49.6311C12.1246 49.7181 12.054 49.7885 11.967 49.7885H7.82443ZM7.82443 55.7324C7.73739 55.7324 7.66682 55.6618 7.66682 55.5747V54.4039C7.66682 54.3169 7.59627 54.2465 7.50923 54.2465H6.33852C6.25146 54.2465 6.18091 54.1759 6.18091 54.0888V49.9462C6.18091 49.8591 6.25146 49.7885 6.33852 49.7885H7.50923C7.59627 49.7885 7.66682 49.8591 7.66682 49.9462V54.0888C7.66682 54.1759 7.73739 54.2465 7.82443 54.2465H10.4811C10.5681 54.2465 10.6387 54.1759 10.6387 54.0888V52.918C10.6387 52.831 10.5681 52.7606 10.4811 52.7606H9.31036C9.2233 52.7606 9.15275 52.69 9.15275 52.6029V51.4321C9.15275 51.3451 9.2233 51.2744 9.31036 51.2744H11.967C12.054 51.2744 12.1246 51.3451 12.1246 51.4321V55.5747C12.1246 55.6618 12.054 55.7324 11.967 55.7324H7.82443Z" fill="#FDAC77"/>
<path d="M4.53721 54.2465C4.62427 54.2465 4.69482 54.3169 4.69482 54.4039V55.5747C4.69482 55.6618 4.62427 55.7324 4.53721 55.7324H0.394666C0.307623 55.7324 0.237061 55.6618 0.237061 55.5747V48.4603C0.237061 48.3732 0.307623 48.3026 0.394666 48.3026H1.56538C1.65242 48.3026 1.72298 48.3732 1.72298 48.4603V54.0888C1.72298 54.1759 1.79354 54.2465 1.88059 54.2465H4.53721Z" fill="#FDAC77"/>
</g>
<path d="M4.5 65.5V67H0V59.5H1.5V65.5H4.5ZM7.5 67H6V59.5H7.5V67ZM10.5 64H9V59.5H10.5V64ZM12 64V59.5H13.5V64H12ZM12 67H10.5V64H12V67ZM21 65.5V67H15V59.5H21V61H16.5V62.5H19.5V64H16.5V65.5H21Z" fill="#FBE5D7"/>
<defs>
<filter id="filter0_g_15_3" x="-0.125" y="-0.125" width="45.23" height="56.25" filterUnits="userSpaceOnUse" color-interpolation-filters="sRGB">
<feFlood flood-opacity="0" result="BackgroundImageFix"/>
<feBlend mode="normal" in="SourceGraphic" in2="BackgroundImageFix" result="shape"/>
<feTurbulence type="fractalNoise" baseFrequency="1.25 1.25" numOctaves="3" seed="3411" />
<feDisplacementMap in="shape" scale="0.25" xChannelSelector="R" yChannelSelector="G" result="displacedImage" width="100%" height="100%" />
<feMerge result="effect1_texture_15_3">
<feMergeNode in="displacedImage"/>
</feMerge>
</filter>
<clipPath id="clip0_15_3">
<rect width="44.9799" height="56" fill="white"/>
</clipPath>
</defs>
</svg>
